<svg xmlns="http://www.w3.org/2000/svg" viewBox="0 0 444 100" width="444" height="100">
  <!-- complift · direction-2 "Dimension Callout" · primary lockup -->
  <g transform="translate(2,-2) scale(0.85)">
    <g stroke="#21211D" stroke-width="3" opacity="0.45">
      <path d="M 30 38 V 16"/>
      <path d="M 94 38 V 16"/>
    </g>
    <g stroke="#E8743B" stroke-width="5" stroke-linecap="round">
      <path d="M 30 22 H 94"/>
      <path d="M 24 28 L 36 16"/>
      <path d="M 88 28 L 100 16"/>
    </g>
    <rect x="30" y="44" width="64" height="64" fill="none" stroke="#1E4FD8" stroke-width="9"/>
    <path d="M 30 66 H 94" stroke="#1E4FD8" stroke-width="9"/>
  </g>
  <g transform="translate(110,0)">
  <!-- wordmark "complift" · hand-built monoline (drafting-pen), no font dependency -->
  <g fill="none" stroke-width="9" stroke-linecap="round" stroke-linejoin="round">
    <!-- comp (ink) -->
    <g stroke="#21211D">
      <path d="M 45 36.8 A 20 20 0 1 0 45 63.2"/>
      <circle cx="78" cy="50" r="20"/>
      <path d="M 111 70 V 30 M 111 44 A 14 14 0 0 1 139 44 V 70 M 139 44 A 14 14 0 0 1 167 44 V 70"/>
      <path d="M 180 30 V 92"/>
      <circle cx="200" cy="50" r="20"/>
    </g>
    <!-- lift (cobalt) -->
    <g stroke="#1E4FD8">
      <path d="M 233 8 V 70"/>
      <path d="M 246 30 V 70"/>
      <path d="M 285 14 A 16 16 0 0 0 269 30 V 70 M 259 32 H 281"/>
      <path d="M 305 12 V 56 A 14 14 0 0 0 319 70 M 295 32 H 317"/>
    </g>
  </g>
  <circle cx="246" cy="14" r="5.5" fill="#1E4FD8"/>
  </g>
</svg>
